<?xml version="1.0" encoding="utf-8"?>
<!-- Generator: Adobe Illustrator 24.1.1, SVG Export Plug-In . SVG Version: 6.00 Build 0)  -->
<svg version="1.1" id="Capa_1" xmlns="http://www.w3.org/2000/svg" xmlns:xlink="http://www.w3.org/1999/xlink" x="0px" y="0px"
	 viewBox="0 0 84 60" style="enable-background:new 0 0 84 60;" xml:space="preserve">
<style type="text/css">
	.st0{fill:#FFFFFF;}
</style>
<g>
	<g>
		<g>
			<path class="st0" d="M53.8,14.3c-0.2,0.6-0.5,1.1-0.7,1.4c-0.1,0.2-0.5,0.1-0.5-0.1c0,0,0-0.3-0.1-0.6l3.4,21.2l-14.7,2.1
				l0.2,1.3l16.1-2.3L53.8,14.3z"/>
			<g>
				<g>
					<path class="st0" d="M3.9,51.8C2.1,50,1.2,47.4,1.2,44c0-3.3,0.9-5.9,2.7-7.8c1.8-1.8,4.5-2.7,8-2.7c3.5,0,6.2,0.9,8,2.7
						c1.8,1.8,2.7,4.4,2.7,7.8c0,3.3-0.9,5.9-2.7,7.8c-1.8,1.8-4.5,2.7-8,2.7C8.4,54.5,5.7,53.6,3.9,51.8z M14.7,48.2
						c0.6-0.9,0.9-2.3,0.9-4.1c0-1.9-0.3-3.3-0.9-4.2c-0.6-0.9-1.5-1.4-2.8-1.4c-1.3,0-2.2,0.5-2.8,1.4c-0.6,0.9-0.9,2.3-0.9,4.2
						c0,1.9,0.3,3.2,0.9,4.1c0.6,0.9,1.5,1.4,2.8,1.4C13.2,49.5,14.1,49.1,14.7,48.2z"/>
				</g>
			</g>
			<g>
				<g>
					<path class="st0" d="M68.4,54.1c-0.3-0.3-0.4-0.7-0.4-1.3V35.3c0-0.6,0.1-1,0.4-1.3c0.3-0.3,0.8-0.4,1.4-0.4h11.3
						c0.7,0,1.1,0.1,1.3,0.4c0.2,0.3,0.4,0.7,0.4,1.3v1.7c0,0.6-0.1,1.1-0.4,1.3c-0.2,0.3-0.7,0.4-1.3,0.4h-5.8v2.6h4.1
						c0.7,0,1.1,0.1,1.3,0.4c0.2,0.3,0.4,0.7,0.4,1.3v1.7c0,0.6-0.1,1.1-0.4,1.3c-0.2,0.3-0.7,0.4-1.3,0.4h-4.1v2.6h5.8
						c0.7,0,1.1,0.1,1.3,0.4c0.2,0.3,0.4,0.7,0.4,1.3v1.7c0,0.6-0.1,1.1-0.4,1.3c-0.2,0.3-0.7,0.4-1.3,0.4H69.8
						C69.1,54.5,68.6,54.4,68.4,54.1z"/>
				</g>
			</g>
			<g>
				<path class="st0" d="M39.8,38.5L39,33.6h-0.2c-0.7,0-1.1,0.1-1.4,0.4c-0.3,0.3-0.4,0.7-0.4,1.3v7.3l-5.5-8.3
					c-0.2-0.3-0.5-0.5-0.7-0.7c-0.2-0.1-0.6-0.2-1-0.2h-2.9c-0.7,0-1.2,0.1-1.4,0.4c-0.3,0.3-0.4,0.7-0.4,1.3v17.4
					c0,0.6,0.1,1,0.4,1.3c0.3,0.3,0.7,0.4,1.4,0.4h3.6c0.7,0,1.2-0.1,1.4-0.4c0.3-0.3,0.4-0.7,0.4-1.3v-7.4l5.5,8.3
					c0.2,0.3,0.5,0.5,0.7,0.7c0.2,0.1,0.6,0.2,1,0.2h2.9c0.7,0,1.2-0.1,1.4-0.4c0.3-0.3,0.4-0.7,0.4-1.3V37.9L39.8,38.5z"/>
				<path class="st0" d="M39.5,28.6l0.9-0.2c1-0.2,1.7-1,1.7-2c0,0,0,0,0,0l0.4,2.3c0.2,1.1,1.3,1.9,2.4,1.7l0.8-0.2
					c1.1-0.2,1.9-1.3,1.7-2.4L47.4,27c0,0,0,0,0,0c0.4,0.9,1.3,1.4,2.3,1.3l0.9-0.2c0.1,0,0.1,0,0.2,0l0,0c1.1-0.2,1.9-1.3,1.7-2.4
					l-2.6-14c0,0,0,0,0,0l-1.2,0.2c0,0,0,0,0,0l2.5,13.3c0.1,0.8-0.3,1.6-1,1.8c-0.8,0.2-1.7-0.3-1.8-1.1l-1.9-10.4L44.2,16
					l2.1,11.3c0.1,0.8-0.3,1.6-1,1.8c-0.8,0.2-1.7-0.3-1.8-1.1l-2.1-11.1l-2.1,0.6l1.5,8c0.1,0.8-0.3,1.6-1,1.8
					c-0.8,0.2-1.7-0.3-1.8-1.1l-1.4-7.8l-2.1,0.6l0.9,5.1c0.1,0.8-0.3,1.6-1,1.8c-0.8,0.2-1.7-0.3-1.8-1.1c0,0-1.4-6.7-1.8-10.1
					c-0.6-4.9-0.2-8.4-0.4-8.7c0,0,0-0.1-0.1-0.1c-0.3-0.2-1-0.2-1.2,0.1c-0.2,0.3-0.2,5,0.3,8.7c0.5,3.4,2,11,2,11
					c0.2,1.1,1.3,1.9,2.4,1.7l0.2,0l0.7-0.1l0.2,0c1-0.2,1.7-1,1.7-2c0,0,0,0,0,0l0.4,2c0.1,0.7,0.6,1.2,1.1,1.5
					C38.6,28.6,39,28.7,39.5,28.6z"/>
				<polygon class="st0" points="52.4,5.6 52.4,5.6 52.8,5.6 				"/>
				<path class="st0" d="M54.8,8c0,0-0.3-1.5-1.3-2.3c0,0-0.1-0.1-0.2-0.1h-0.5l-0.5,0c-0.2,0-0.4,0.3-0.2,0.5
					c0.6,0.5,1.5,1.9,1.5,3.4c0,2.3-1.4,4.1-1.3,4.7c0,0.2,0.1,0.5,0.1,0.8c0,0,0,0,0,0c0.1,0.3,0.1,0.6,0.1,0.6
					c0,0.3,0.4,0.4,0.5,0.1c0.2-0.4,0.5-0.9,0.7-1.4C54.6,12.5,55.4,9.9,54.8,8z"/>
			</g>
		</g>
		<path class="st0" d="M63.1,35.4c-1.4-1.2-3.7-1.8-6.8-1.8h-0.8l0.4,2.6L47,37.5v15.3c0,0.6,0.1,1,0.4,1.3c0.3,0.3,0.8,0.4,1.4,0.4
			h3.7c0.7,0,1.2-0.1,1.5-0.4c0.3-0.3,0.4-0.7,0.4-1.3v-4.5h1.9c3.1,0,5.3-0.6,6.8-1.8c1.4-1.2,2.1-3,2.1-5.5
			C65.3,38.5,64.5,36.6,63.1,35.4z M57.2,42.5c-0.4,0.3-0.9,0.5-1.6,0.5h-2.1v-4.2h2.1c0.7,0,1.2,0.2,1.6,0.5
			c0.4,0.3,0.6,0.9,0.6,1.6C57.8,41.6,57.6,42.2,57.2,42.5z"/>
	</g>
</g>
</svg>
